<?xml version="1.0" standalone="no"?>
<!DOCTYPE svg PUBLIC "-//W3C//DTD SVG 20010904//EN"
 "http://www.w3.org/TR/2001/REC-SVG-20010904/DTD/svg10.dtd">
<svg version="1.0" xmlns="http://www.w3.org/2000/svg"
 width="393.000000pt" height="393.000000pt" viewBox="0 0 393.000000 393.000000"
 preserveAspectRatio="xMidYMid meet">
<metadata>
Created by potrace 1.14, written by Peter Selinger 2001-2017
</metadata>
<g transform="translate(0.000000,393.000000) scale(0.100000,-0.100000)"
fill="#000000" stroke="none">
<path d="M1548 3391 l-27 -28 29 -34 28 -34 31 29 c17 17 31 32 31 35 0 9 -50
61 -58 61 -4 -1 -19 -14 -34 -29z"/>
<path d="M2377 3332 c-33 -34 -33 -37 -2 -67 30 -31 33 -31 67 2 l28 27 28
-27 c15 -15 31 -27 36 -27 8 0 56 50 56 60 0 3 -13 19 -29 34 l-29 28 -31 -33
-31 -34 -30 33 c-16 17 -31 32 -33 32 -2 0 -15 -13 -30 -28z"/>
<path d="M2377 3202 c-33 -35 -33 -41 3 -70 l29 -22 25 25 c14 14 26 30 26 34
0 8 -46 61 -53 61 -2 0 -15 -13 -30 -28z"/>
<path d="M2496 3199 l-28 -30 33 -30 33 -29 28 27 c15 15 28 31 28 35 0 9 -51
58 -60 57 -3 0 -18 -13 -34 -30z"/>
<path d="M2620 3005 c-41 -13 -75 -24 -75 -25 0 -1 -7 -3 -16 -5 -34 -6 -211
-88 -296 -137 -107 -61 -227 -147 -311 -222 -48 -43 -67 -54 -80 -48 -20 11
-74 7 -97 -6 -9 -5 -74 -66 -145 -136 -142 -140 -118 -130 -250 -112 -25 4
-58 8 -75 10 -16 2 -50 6 -75 10 -25 4 -63 8 -85 10 -77 8 -150 17 -173 22
-13 2 -48 7 -79 10 -30 3 -133 16 -229 28 l-173 22 -88 -88 -88 -88 357 -358
357 -357 -15 -28 c-9 -16 -70 -83 -136 -149 l-120 -121 93 -93 c104 -104 89
-102 171 -21 27 26 51 47 54 47 4 0 34 -27 66 -61 l60 -60 -61 -60 c-34 -33
-61 -64 -61 -67 0 -10 174 -182 184 -182 5 0 61 53 126 118 65 65 130 124 144
132 27 14 27 14 385 -344 l358 -358 88 85 87 86 -7 58 c-4 32 -8 69 -10 83 -2
14 -7 48 -10 75 -3 28 -8 68 -11 90 -8 70 -16 129 -19 155 -4 24 -20 155 -30
239 -3 23 -8 60 -11 84 -8 60 -10 73 -18 159 l-8 78 131 131 c72 72 134 142
137 156 4 13 4 42 1 64 -5 38 -2 45 44 95 66 73 152 190 203 277 46 79 129
247 141 287 4 14 13 39 20 55 27 63 51 172 49 221 -3 91 -64 187 -144 230 -71
37 -161 40 -260 9z"/>
<path d="M1809 2892 c-31 -37 -32 -43 -3 -73 l28 -29 33 32 33 32 -27 28 c-31
33 -43 35 -64 10z"/>
<path d="M1243 2768 c-35 -40 -36 -48 -9 -73 32 -30 32 -39 1 -63 -32 -25 -31
-32 4 -66 l29 -28 31 33 31 32 -31 28 c-31 27 -31 28 -13 53 29 38 45 40 77 7
l30 -29 -32 -32 -32 -32 32 -30 31 -30 29 28 c36 34 36 39 2 68 -26 23 -27 24
-10 50 10 14 22 26 27 26 19 0 10 27 -19 54 l-28 27 -32 -32 -32 -32 -33 32
-32 31 -21 -22z"/>
<path d="M3228 1905 l-28 -32 31 -33 31 -32 31 31 32 31 -35 34 -35 34 -27
-33z"/>
<path d="M3355 1900 l-29 -30 27 -28 c33 -35 33 -39 2 -64 -14 -11 -25 -23
-25 -28 0 -10 48 -60 57 -60 4 0 20 12 35 27 l28 27 -32 33 -32 33 32 32 33
31 -27 29 c-15 15 -31 28 -34 28 -3 0 -19 -13 -35 -30z"/>
<path d="M3227 1775 l-28 -33 33 -31 32 -30 28 31 c15 18 28 33 28 35 0 4 -60
63 -63 62 -1 0 -15 -16 -30 -34z"/>
<path d="M2785 1710 l-29 -30 31 -31 31 -31 31 33 31 32 -27 29 c-15 15 -30
28 -33 28 -3 0 -19 -14 -35 -30z"/>
</g>
</svg>
